#!OML:ASF E:\VariousWalksJay\Project 1\Capture day 1\Session 1\Actor2.ASF
:FULLY-SPECIFIED
:DEGREES
720
root -7.03187 16.3923 29.2793 25.4551 -42.6038 -1.98814
lowerback 14.0655 -3.71707 6.21544
upperback 11.8639 -4.57539 -2.01792
thorax 4.17529 -1.94149 -5.14024
lowerneck 3.32732 2.31193 3.00927
upperneck -14.1145 3.14891 -1.38872
head -4.70609 1.44599 -1.07778
rclavicle -4.37326e-014 4.77083e-014
rhumerus -44.0164 16.8372 -89.437
rradius 57.6735
rwrist 16.7527
rhand -50.6888 13.0921
rfingers 7.12502
rthumb -23.2501 -15.5243
lclavicle -4.37326e-014 4.77083e-014
lhumerus 8.95973 -53.5337 74.0214
lradius 83.4973
lwrist 30.46
lhand -32.1169 -2.98452
lfingers 7.12502
lthumb -5.36163 26.9277
rfemur -60.7299 1.98474 26.871
rtibia 37.9628
rfoot -0.641416 -9.42266
rtoes 6.18699
lfemur -10.4128 13.0576 -27.4584
ltibia 39.0349
lfoot -6.40485 10.5726
ltoes -9.08703
721
root -7.11675 16.4258 29.3728 25.6897 -42.5811 -2.0602
lowerback 13.9536 -3.73862 6.22184
upperback 11.7991 -4.60536 -1.97037
thorax 4.16182 -1.95842 -5.09307
lowerneck 3.31507 2.32579 2.92221
upperneck -14.0767 3.15621 -1.42198
head -4.69291 1.45677 -1.07352
rclavicle -1.51076e-014 -5.96354e-014
rhumerus -44.156 17.1006 -89.4673
rradius 57.6659
rwrist 16.7878
rhand -50.6567 13.0357
rfingers 7.12502
rthumb -23.2193 -15.5846
lclavicle -1.51076e-014 -5.96354e-014
lhumerus 8.49627 -53.3756 74.5208
lradius 83.4131
lwrist 30.4036
lhand -32.1125 -3.06915
lfingers 7.12502
lthumb -5.35736 26.8431
rfemur -60.4935 2.1363 26.7767
rtibia 38.0927
rfoot -1.0858 -9.5332
rtoes 6.82983
lfemur -10.1592 13.1588 -27.2505
ltibia 38.6024
lfoot -5.01669 10.382
ltoes -9.07099
722
root -7.19907 16.4571 29.4644 25.8951 -42.5766 -2.09974
lowerback 13.8486 -3.7509 6.21029
upperback 11.74 -4.62484 -1.93529
thorax 4.15247 -1.9706 -5.05037
lowerneck 3.30778 2.33703 2.85255
upperneck -14.0624 3.16213 -1.44971
head -4.68765 1.46524 -1.07067
rclavicle 0 -1.51076e-014
rhumerus -44.2882 17.31 -89.4929
rradius 57.7014
rwrist 16.8046
rhand -50.6162 12.9564
rfingers 7.12502
rthumb -23.1805 -15.6688
lclavicle 0 -1.51076e-014
lhumerus 8.0888 -53.2185 74.9559
lradius 83.3621
lwrist 30.3568
lhand -32.1133 -3.15768
lfingers 7.12502
lthumb -5.35812 26.7546
rfemur -60.2637 2.28967 26.6562
rtibia 38.2218
rfoot -1.5456 -9.63937
rtoes 7.3765
lfemur -9.94334 13.2244 -27.0731
ltibia 38.2297
lfoot -3.60814 10.1883
ltoes -9.15356
723
root -7.27905 16.4861 29.5539 26.069 -42.6009 -2.10664
lowerback 13.749 -3.74349 6.183
upperback 11.6934 -4.62059 -1.92264
thorax 4.15659 -1.9705 -5.02597
lowerneck 3.28411 2.33982 2.81992
upperneck -14.062 3.16024 -1.46583
head -4.68374 1.46689 -1.06984
rclavicle -4.45278e-014 -1.74931e-014
rhumerus -44.3979 17.4419 -89.5203
rradius 57.7698
rwrist 16.8029
rhand -50.5687 12.8611
rfingers 7.12502
rthumb -23.1349 -15.7698
lclavicle -4.45278e-014 -1.74931e-014
lhumerus 7.77568 -53.0985 75.2841
lradius 83.34
lwrist 30.3094
lhand -32.1314 -3.24642
lfingers 7.12502
lthumb -5.37559 26.6654
rfemur -60.0367 2.45071 26.5084
rtibia 38.3484
rfoot -2.01127 -9.7352
rtoes 7.80994
lfemur -9.76377 13.2579 -26.932
ltibia 37.9217
lfoot -2.20076 9.98923
ltoes -9.31569
724
root -7.3567 16.5129 29.6418 26.2148 -42.6518 -2.09871
lowerback 13.6613 -3.7157 6.15929
upperback 11.6558 -4.58928 -1.9329
thorax 4.16603 -1.95562 -5.03092
lowerneck 3.26926 2.3305 2.83726
upperneck -14.0774 3.14691 -1.4751
head -4.68582 1.45963 -1.07484
rclavicle -1.43125e-014 -3.49861e-014
rhumerus -44.4952 17.4925 -89.5557
rradius 57.8607
rwrist 16.7897
rhand -50.5165 12.7744
rfingers 7.12502
rthumb -23.0848 -15.8628
lclavicle -1.43125e-014 -3.49861e-014
lhumerus 7.54281 -53.0359 75.5133
lradius 83.3377
lwrist 30.2362
lhand -32.186 -3.33872
lfingers 7.12502
lthumb -5.42832 26.5718
rfemur -59.7992 2.6119 26.3554
rtibia 38.4692
rfoot -2.47801 -9.81114
rtoes 8.10963
lfemur -9.61129 13.2663 -26.812
ltibia 37.6879
lfoot -0.831164 9.76781
ltoes -9.49116
725
root -7.43184 16.5374 29.7277 26.338 -42.7253 -2.08635
lowerback 13.5955 -3.68772 6.11914
upperback 11.6244 -4.55837 -1.94681
thorax 4.17128 -1.94208 -5.02941
lowerneck 3.26435 2.3329 2.83298
upperneck -14.1082 3.15063 -1.46598
head -4.6946 1.46067 -1.07179
rclavicle -5.00937e-014 -1.82882e-014
rhumerus -44.5669 17.5553 -89.5887
rradius 57.963
rwrist 16.7654
rhand -50.4547 12.7014
rfingers 7.12502
rthumb -23.0255 -15.9432
lclavicle -5.00937e-014 -1.82882e-014
lhumerus 7.35107 -52.9559 75.6911
lradius 83.3464
lwrist 30.139
lhand -32.2667 -3.42185
lfingers 7.12502
lthumb -5.5062 26.4866
rfemur -59.5496 2.77345 26.209
rtibia 38.5809
rfoot -2.93779 -9.87191
rtoes 8.25521
lfemur -9.49063 13.2533 -26.7043
ltibia 37.5427
lfoot 0.458472 9.50703
ltoes -9.62661
726
root -7.50459 16.56 29.8117 26.4507 -42.8186 -2.08718
lowerback 13.5513 -3.65489 6.08011
upperback 11.5977 -4.52017 -1.9646
thorax 4.1708 -1.92501 -5.03239
lowerneck 3.27136 2.34106 2.8257
upperneck -14.1446 3.16399 -1.4454
head -4.70718 1.46592 -1.06542
rclavicle 2.14687e-014 -2.46493e-014
rhumerus -44.6208 17.6365 -89.6249
rradius 58.0802
rwrist 16.729
rhand -50.3816 12.6105
rfingers 7.12502
rthumb -22.9553 -16.0428
lclavicle 2.14687e-014 -2.46493e-014
lhumerus 7.20184 -52.8711 75.8165
lradius 83.3651
lwrist 30.0376
lhand -32.3441 -3.49214
lfingers 7.12502
lthumb -5.58094 26.4144
rfemur -59.2822 2.94289 26.0762
rtibia 38.6786
rfoot -3.40389 -9.92193
rtoes 8.38289
lfemur -9.40902 13.2268 -26.5938
ltibia 37.5072
lfoot 1.61245 9.19448
ltoes -9.67725
727
root -7.57468 16.5809 29.8941 26.5399 -42.9258 -2.08898
lowerback 13.5335 -3.62151 6.04408
upperback 11.5792 -4.48 -1.98993
thorax 4.16495 -1.90675 -5.04406
lowerneck 3.2756 2.35284 2.82192
upperneck -14.1765 3.18345 -1.41818
head -4.71785 1.47366 -1.05778
rclavicle -4.92986e-014 7.07673e-014
rhumerus -44.6391 17.73 -89.6635
rradius 58.1923
rwrist 16.691
rhand -50.2998 12.529
rfingers 7.12502
rthumb -22.8769 -16.134
lclavicle -4.92986e-014 7.07673e-014
lhumerus 7.10397 -52.7862 75.8794
lradius 83.3844
lwrist 29.9282
lhand -32.4369 -3.56194
lfingers 7.12502
lthumb -5.67053 26.3422
rfemur -58.9926 3.10665 25.9519
rtibia 38.7616
rfoot -3.87357 -9.95918
rtoes 8.49314
lfemur -9.36853 13.1776 -26.4882
ltibia 37.6048
lfoot 2.55339 8.81891
ltoes -9.67856
728
root -7.64222 16.6001 29.9746 26.6316 -43.0401 -2.12297
lowerback 13.5386 -3.58956 6.03039
upperback 11.5665 -4.43893 -2.01577
thorax 4.15246 -1.88697 -5.06784
lowerneck 3.28634 2.37088 2.81458
upperneck -14.2102 3.21204 -1.38686
head -4.73012 1.48588 -1.04885
rclavicle 3.49861e-014 -4.53229e-014
rhumerus -44.6248 17.8487 -89.7059
rradius 58.2975
rwrist 16.6546
rhand -50.2136 12.4618
rfingers 7.12502
rthumb -22.7941 -16.2115
lclavicle 3.49861e-014 -4.53229e-014
lhumerus 7.04572 -52.6908 75.8918
lradius 83.4024
lwrist 29.8175
lhand -32.535 -3.61451
lfingers 7.12502
lthumb -5.76531 26.2871
rfemur -58.6837 3.2643 25.8679
rtibia 38.8285
rfoot -4.34118 -9.9782
rtoes 8.56599
lfemur -9.38886 13.1114 -26.363
ltibia 37.8667
lfoot 3.2367 8.36183
ltoes -9.67689
729
root -7.70681 16.6176 30.0532 26.7219 -43.1575 -2.17874
lowerback 13.5676 -3.56092 6.03915
upperback 11.5601 -4.39931 -2.04317
thorax 4.13299 -1.86677 -5.10462
lowerneck 3.28174 2.39116 2.80821
upperneck -14.2269 3.24311 -1.35727
head -4.73451 1.49956 -1.04032
rclavicle -1.51076e-014 -1.35174e-014
rhumerus -44.5693 17.9874 -89.7469
rradius 58.3945
rwrist 16.6194
rhand -50.1172 12.3935
rfingers 7.12502
rthumb -22.7016 -16.2911
lclavicle -1.51076e-014 -1.35174e-014
lhumerus 7.0326 -52.579 75.8528
lradius 83.4241
lwrist 29.7475
lhand -32.5983 -3.63791
lfingers 7.12502
lthumb -5.82641 26.262
rfemur -58.3633 3.41547 25.8105
rtibia 38.8841
rfoot -4.80032 -9.98639
rtoes 8.60057
lfemur -9.48889 13.0267 -26.2268
ltibia 38.3235
lfoot 3.63258 7.81777
ltoes -9.71848
730
root -7.76822 16.6336 30.1292 26.823 -43.2769 -2.25666
lowerback 13.6135 -3.53512 6.06811
upperback 11.5573 -4.36093 -2.07141
thorax 4.10735 -1.84619 -5.15274
lowerneck 3.26126 2.41282 2.80384
upperneck -14.2312 3.27512 -1.3323
head -4.73228 1.51401 -1.0332
rclavicle -1.90833e-014 -5.88403e-014
rhumerus -44.4756 18.1454 -89.7874
rradius 58.4866
rwrist 16.5863
rhand -50.0195 12.3342
rfingers 7.12502
rthumb -22.6078 -16.3619
lclavicle -1.90833e-014 -5.88403e-014
lhumerus 7.06488 -52.4505 75.7632
lradius 83.4465
lwrist 29.723
lhand -32.6336 -3.63324
lfingers 7.12502
lthumb -5.86051 26.2657
rfemur -58.0482 3.56065 25.7792
rtibia 38.9308
rfoot -5.24292 -9.98264
rtoes 8.6095
lfemur -9.7042 12.9191 -26.0815
ltibia 39.0141
lfoot 3.72294 7.20127
ltoes -9.79753
731
root -7.82661 16.648 30.2025 26.9307 -43.3817 -2.35309
lowerback 13.6779 -3.51546 6.12112
upperback 11.5599 -4.32761 -2.09698
thorax 4.07646 -1.82694 -5.2102
lowerneck 3.22788 2.43241 2.79754
upperneck -14.2294 3.30325 -1.31033
head -4.72606 1.52687 -1.02622
rclavicle -1.98785e-014 6.59965e-014
rhumerus -44.345 18.3108 -89.8219
rradius 58.5766
rwrist 16.5507
rhand -49.9183 12.2715
rfingers 7.12502
rthumb -22.5107 -16.4364
lclavicle -1.98785e-014 6.59965e-014
lhumerus 7.15319 -52.3094 75.6158
lradius 83.4709
lwrist 29.7592
lhand -32.6345 -3.6048
lfingers 7.12502
lthumb -5.86131 26.2941
rfemur -57.7412 3.70016 25.7669
rtibia 38.9764
rfoot -5.66522 -9.98163
rtoes 8.57512
lfemur -10.0495 12.7814 -25.9234
ltibia 39.9728
lfoot 3.53078 6.51952
ltoes -10.044
732
root -7.88186 16.6612 30.2726 27.0412 -43.4623 -2.46229
lowerback 13.7648 -3.50558 6.19735
upperback 11.5685 -4.30385 -2.11942
thorax 4.03824 -1.81138 -5.27533
lowerneck 3.18628 2.44954 2.79336
upperneck -14.2321 3.32687 -1.29562
head -4.71975 1.53772 -1.02153
rclavicle 9.78021e-014 5.96354e-014
rhumerus -44.1797 18.4705 -89.851
rradius 58.6704
rwrist 16.5217
rhand -49.8222 12.2243
rfingers 7.12502
rthumb -22.4184 -16.4947
lclavicle 9.78021e-014 5.96354e-014
lhumerus 7.30382 -52.1597 75.4033
lradius 83.4933
lwrist 29.8443
lhand -32.6332 -3.56286
lfingers 7.12502
lthumb -5.86011 26.3361
rfemur -57.4478 3.83112 25.7679
rtibia 39.0292
rfoot -6.06407 -9.99008
rtoes 8.50645
lfemur -10.5445 12.6228 -25.7503
ltibia 41.232
lfoot 3.09083 5.7974
ltoes -10.4118
733
root -7.9338 16.6732 30.3394 27.1614 -43.5276 -2.58051
lowerback 13.8664 -3.49844 6.28963
upperback 11.581 -4.28136 -2.1403
thorax 3.99594 -1.79568 -5.34713
lowerneck 3.14096 2.46081 2.78939
upperneck -14.2458 3.34253 -1.27875
head -4.71641 1.54429 -1.01589
rclavicle -8.74653e-015 -9.22361e-014
rhumerus -43.9898 18.6189 -89.8717
rradius 58.7858
rwrist 16.4887
rhand -49.727 12.1724
rfingers 7.12502
rthumb -22.327 -16.5576
lclavicle -8.74653e-015 -9.22361e-014
lhumerus 7.52971 -52.0096 75.1172
lradius 83.516
lwrist 29.9858
lhand -32.6215 -3.49936
lfingers 7.12502
lthumb -5.84878 26.3999
rfemur -57.1848 3.9614 25.7731
rtibia 39.0975
rfoot -6.43677 -10.0052
rtoes 8.42381
lfemur -11.2157 12.4595 -25.5737
ltibia 42.818
lfoot 2.46003 5.06721
ltoes -10.9209
